# xmcd
#
# Track frame offsets:
#	150
#	13110
#	23845
#	43339
#	56672
#	69761
#	88054
#	99611
#	121175
#	146575
#
# Disc length: 2240 seconds
#
# Revision: 0
# Processed by: cddbd v1.5.2PL0 Copyright (c) Steve Scherf et al.
# Submitted via: EZCDAudioConverter 6.0.9.1
#
DISCID=8408be0a
DTITLE=Shelby Lynne and Allison Moorer - Not Dark Yet
DYEAR=2017
DGENRE=Country
TTITLE0=My List
TTITLE1=Every Time You Leave
TTITLE2=Not Dark Yet
TTITLE3=I'm Looking For Blue Skies
TTITLE4=Lungs
TTITLE5=The Colour Of A Cloudy Day
TTITLE6=Silver Wings
TTITLE7=Into My Arms
TTITLE8=Lithium
TTITLE9=Is It Too Much?
EXTD=
EXTT0=
EXTT1=
EXTT2=
EXTT3=
EXTT4=
EXTT5=
EXTT6=
EXTT7=
EXTT8=
EXTT9=
PLAYORDER=
